<svg xmlns="http://www.w3.org/2000/svg" viewBox="0 0 64 64" role="img" aria-label="Mistral"><g><rect x="8" y="10" width="9.5" height="9.5" fill="#FFCC33"/><rect x="18" y="10" width="9.5" height="9.5" fill="#FFCC33"/><rect x="28" y="10" width="9.5" height="9.5" fill="#FFCC33"/><rect x="38" y="10" width="9.5" height="9.5" fill="#FFCC33"/><rect x="48" y="10" width="9.5" height="9.5" fill="#FFCC33"/><rect x="8" y="20" width="9.5" height="9.5" fill="#FF8205"/><rect x="48" y="20" width="9.5" height="9.5" fill="#FF8205"/><rect x="8" y="30" width="9.5" height="9.5" fill="#FA500F"/><rect x="28" y="30" width="9.5" height="9.5" fill="#FA500F"/><rect x="48" y="30" width="9.5" height="9.5" fill="#FA500F"/><rect x="8" y="40" width="9.5" height="9.5" fill="#E10500"/><rect x="48" y="40" width="9.5" height="9.5" fill="#E10500"/><rect x="8" y="50" width="9.5" height="9.5" fill="#990000"/><rect x="28" y="50" width="9.5" height="9.5" fill="#990000"/><rect x="48" y="50" width="9.5" height="9.5" fill="#990000"/></g></svg>
